<svg height="1280pt" preserveAspectRatio="xMidYMid meet" viewBox="0 0 851 1280" width="851pt" xmlns="http://www.w3.org/2000/svg"><g transform="matrix(.1 0 0 -.1 0 1280)"><path d="m3541 12784c-124-33-236-129-294-251-30-64-32-74-32-183s2-119 32-183c38-80 122-173 191-210 275-150 611 16 663 326 52 312-252 584-560 501z"/><path d="m4743 12785c-226-61-371-280-334-502 52-310 388-476 663-326 69 37 153 130 191 210 30 64 32 74 32 183s-2 119-32 183c-38 80-122 173-191 210-100 54-224 70-329 42z"/><path d="m2055 11719c-101-12-297-60-396-98-537-207-928-685-1015-1241-13-83-14-486-12-3170 3-2913 4-3079 21-3150 30-125 94-305 142-402 86-170 166-281 303-421 217-221 421-339 725-419l47-13-935-1403-935-1402 542 2 542 3 665 977 666 977h1840 1840l666-977 665-977 542-3 542-2-935 1402-935 1403 47 13c235 62 406 145 578 282 72 58 218 205 274 277 145 185 256 425 318 683 17 71 18 237 21 3150 3 3354 6 3150-53 3355-180 626-732 1085-1387 1155-121 13-4266 11-4383-1zm3101-353c60-28 117-91 138-154 23-67 23-557 0-624-21-63-78-126-138-154l-51-24h-850-850l-51 24c-60 28-117 91-138 154-23 67-23 557 0 624 21 63 78 126 138 154l51 24h850 850zm1289-1299c33-10 103-39 155-65 179-88 316-257 381-472 23-74 23-82 27-729 2-432-1-678-8-724-46-300-255-532-557-619l-78-23h-2110-2110l-79 23c-302 87-510 319-556 620-7 45-10 293-8 723 4 647 4 655 27 729 12 41 43 115 69 165 101 196 309 346 533 384 31 5 945 8 2154 7 1982-1 2103-2 2160-19zm-4012-5020c215-68 387-239 463-462 25-72 28-94 28-215 0-118-3-144-26-212-40-121-92-204-182-293-138-137-302-205-496-205-399 0-710 311-710 710 0 194 68 358 205 496 107 108 208 164 360 200 89 21 259 12 358-19zm3985 17c97-19 240-88 312-150 167-143 253-327 254-544 0-128-13-188-69-305-90-188-228-309-430-377-60-20-90-23-210-23s-150 3-210 23c-198 66-335 185-425 367-55 111-73 189-73 315-1 277 148 514 398 635 148 72 296 91 453 59z"/></g></svg>